<svg xmlns="http://www.w3.org/2000/svg" viewBox="0 0 64 64" width="64" height="64">
  <!-- Shield shape -->
  <path d="M32 4 L56 16 L56 34 Q56 52 32 60 Q8 52 8 34 L8 16 Z"
        fill="#3a5a20" stroke="#c8a415" stroke-width="2.5"/>
  <!-- Inner shield highlight -->
  <path d="M32 10 L50 19 L50 33 Q50 48 32 54 Q14 48 14 33 L14 19 Z"
        fill="#4a6d28" stroke="#c8a415" stroke-width="1" opacity="0.6"/>
  <!-- Crossed swords -->
  <!-- Left sword -->
  <line x1="22" y1="42" x2="38" y2="18" stroke="#c8a415" stroke-width="2.5" stroke-linecap="round"/>
  <line x1="22" y1="42" x2="19" y2="39" stroke="#c8a415" stroke-width="2" stroke-linecap="round"/>
  <line x1="22" y1="42" x2="25" y2="39" stroke="#c8a415" stroke-width="2" stroke-linecap="round"/>
  <!-- Right sword -->
  <line x1="42" y1="42" x2="26" y2="18" stroke="#c8a415" stroke-width="2.5" stroke-linecap="round"/>
  <line x1="42" y1="42" x2="39" y2="39" stroke="#c8a415" stroke-width="2" stroke-linecap="round"/>
  <line x1="42" y1="42" x2="45" y2="39" stroke="#c8a415" stroke-width="2" stroke-linecap="round"/>
  <!-- W letter (for W.I.T.E.K) -->
  <text x="32" y="50" text-anchor="middle" font-family="serif" font-weight="bold"
        font-size="11" fill="#f5e6c8" opacity="0.9">W</text>
</svg>
